<?xml version="1.0" standalone="no"?><!DOCTYPE svg PUBLIC "-//W3C//DTD SVG 1.1//EN" "http://www.w3.org/Graphics/SVG/1.1/DTD/svg11.dtd"><svg t="1654915533384" class="icon" viewBox="0 0 1024 1024" version="1.1" xmlns="http://www.w3.org/2000/svg" p-id="1466" xmlns:xlink="http://www.w3.org/1999/xlink" width="200" height="200"><defs><style type="text/css">@font-face { font-family: "Open Sans"; font-style: normal; font-weight: 300; src: url("chrome-extension://iidnbdjijdkbmajdffnidomddglmieko/fonts/open-sans-v28-latin-ext_latin-300.woff") format("woff"); }
@font-face { font-family: "Open Sans"; font-style: normal; font-weight: 400; src: url("chrome-extension://iidnbdjijdkbmajdffnidomddglmieko/fonts/open-sans-v23-latin-regular.woff") format("woff"); }
@font-face { font-family: "Open Sans"; font-style: normal; font-weight: 600; src: url("chrome-extension://iidnbdjijdkbmajdffnidomddglmieko/fonts/open-sans-v23-latin-600.woff") format("woff"); }
@font-face { font-family: "Open Sans"; font-style: normal; font-weight: 700; src: url("chrome-extension://iidnbdjijdkbmajdffnidomddglmieko/fonts/open-sans-v23-latin-700.woff") format("woff"); }
@font-face { font-family: "Open Sans"; font-style: normal; font-weight: 800; src: url("chrome-extension://iidnbdjijdkbmajdffnidomddglmieko/fonts/open-sans-v28-latin-ext_latin-800.woff") format("woff"); }
@font-face { font-family: "Open Sans"; font-style: normal; font-weight: 300; src: url("chrome-extension://iidnbdjijdkbmajdffnidomddglmieko/fonts/open-sans-v28-latin-ext_latin-300.woff") format("woff"); }
@font-face { font-family: "Open Sans"; font-style: normal; font-weight: 400; src: url("chrome-extension://iidnbdjijdkbmajdffnidomddglmieko/fonts/open-sans-v23-latin-regular.woff") format("woff"); }
@font-face { font-family: "Open Sans"; font-style: normal; font-weight: 600; src: url("chrome-extension://iidnbdjijdkbmajdffnidomddglmieko/fonts/open-sans-v23-latin-600.woff") format("woff"); }
@font-face { font-family: "Open Sans"; font-style: normal; font-weight: 700; src: url("chrome-extension://iidnbdjijdkbmajdffnidomddglmieko/fonts/open-sans-v23-latin-700.woff") format("woff"); }
@font-face { font-family: "Open Sans"; font-style: normal; font-weight: 800; src: url("chrome-extension://iidnbdjijdkbmajdffnidomddglmieko/fonts/open-sans-v28-latin-ext_latin-800.woff") format("woff"); }
@font-face { font-family: feedback-iconfont; src: url("//at.alicdn.com/t/font_1031158_u69w8yhxdu.woff2?t=1630033759944") format("woff2"), url("//at.alicdn.com/t/font_1031158_u69w8yhxdu.woff?t=1630033759944") format("woff"), url("//at.alicdn.com/t/font_1031158_u69w8yhxdu.ttf?t=1630033759944") format("truetype"); }
</style></defs><path d="M513.024 666.624c-95.232 0-180.224-61.44-209.92-151.552l-2.048-3.072 1.024-3.072c29.696-91.136 114.688-151.552 209.92-151.552s180.224 61.44 209.92 151.552l1.024 3.072-1.024 3.072c-28.672 91.136-113.664 151.552-208.896 151.552zM321.536 512c28.672 81.92 105.472 136.192 191.488 136.192C599.04 648.192 675.84 593.92 704.512 512 675.84 430.08 599.04 375.808 513.024 375.808c-87.04 0-163.84 54.272-191.488 136.192z m191.488 122.88c-67.584 0-122.88-55.296-122.88-122.88s55.296-122.88 122.88-122.88 122.88 55.296 122.88 122.88-55.296 122.88-122.88 122.88z m0-227.328c-57.344 0-104.448 47.104-104.448 104.448s47.104 104.448 104.448 104.448S617.472 569.344 617.472 512s-47.104-104.448-104.448-104.448zM351.232 718.848H337.92c-19.456 0-35.84-16.384-35.84-35.84V665.6h18.432v17.408c0 9.216 8.192 17.408 17.408 17.408h13.312v18.432zM320.512 358.4h-18.432v-17.408c0-19.456 16.384-35.84 35.84-35.84h13.312v18.432H337.92c-9.216 0-17.408 7.168-17.408 17.408V358.4zM688.128 718.848h-13.312v-18.432h13.312c9.216 0 17.408-7.168 17.408-17.408V665.6h18.432v17.408c-1.024 20.48-16.384 35.84-35.84 35.84z" fill="#404066" p-id="1467"></path><path d="M688.128 521.216H538.624c-19.456 0-35.84-16.384-35.84-35.84V340.992c0-19.456 16.384-35.84 35.84-35.84h148.48c19.456 0 35.84 16.384 35.84 35.84v145.408c0 18.432-15.36 34.816-34.816 34.816zM538.624 323.584c-9.216 0-17.408 7.168-17.408 17.408v145.408c0 9.216 7.168 17.408 17.408 17.408h148.48c9.216 0 17.408-7.168 17.408-17.408V340.992c0-9.216-7.168-17.408-17.408-17.408H538.624z" fill="#404066" p-id="1468"></path></svg>